<?xml version="1.0" encoding="iso-8859-1"?>
<!-- Generator: Adobe Illustrator 19.0.0, SVG Export Plug-In . SVG Version: 6.00 Build 0)  -->
<svg version="1.1" id="Capa_1" xmlns="http://www.w3.org/2000/svg" xmlns:xlink="http://www.w3.org/1999/xlink" x="0px" y="0px"
	 viewBox="0 0 56.48 56.48" style="enable-background:new 0 0 56.48 56.48;" xml:space="preserve">
<g>
	<g>
		<path d="M12.121,24.861c-0.229-0.15-0.57-0.226-1.018-0.226l-0.383,0.002c-0.251-0.002-0.508,0.2-0.557,0.444l-0.353,1.52
			c-0.055,0.246,0.102,0.447,0.356,0.447h0.286c0.635,0,1.127-0.129,1.48-0.389c0.353-0.258,0.534-0.625,0.526-1.1
			C12.46,25.245,12.347,25.01,12.121,24.861z"/>
	</g>
</g>
<g>
	<g>
		<path d="M18.371,28.364c-0.069,0.002-0.598,0.062-0.866,0.095c-0.3,0.043-0.56,0.103-0.771,0.174l-0.496,0.338
			c-0.116,0.146-0.171,0.332-0.171,0.571l0.226,0.438c0.153,0.086,0.379,0.128,0.667,0.128c0.19,0,0.396-0.046,0.612-0.134
			l0.46-0.237l0.182-0.242c0.072-0.282,0.221-0.909,0.238-0.987L18.371,28.364z"/>
	</g>
</g>
<g>
	<g>
		<path d="M55.026,9.939H1.454C0.65,9.939,0,10.59,0,11.393v33.694c0,0.803,0.65,1.455,1.454,1.455h53.572
			c0.804,0,1.454-0.651,1.454-1.454V11.393C56.48,10.59,55.83,9.939,55.026,9.939z M13.484,27.695
			c-0.796,0.586-1.904,0.878-3.336,0.88H9.814c-0.257,0-0.508,0.202-0.561,0.444l-0.402,1.738c-0.057,0.248-0.308,0.446-0.562,0.446
			h-1.17c-0.254,0-0.413-0.204-0.353-0.446l1.645-7.163c0.06-0.246,0.309-0.443,0.563-0.447l2.444-0.001
			c0.528,0.005,0.985,0.037,1.381,0.109c0.39,0.074,0.73,0.198,1.018,0.374c0.276,0.174,0.499,0.407,0.639,0.689
			c0.156,0.282,0.225,0.635,0.225,1.055C14.681,26.333,14.286,27.109,13.484,27.695z M20.746,26.781l-0.044,0.301l-0.854,3.692
			c-0.05,0.222-0.27,0.411-0.503,0.438l-0.016,0.006H19.16h-0.898h-0.021l-0.004-0.004c-0.223-0.021-0.361-0.21-0.313-0.438v-0.002
			l0.002-0.007l0.044-0.188l-0.006-0.007l-0.441,0.291l-0.48,0.268l-0.566,0.194c-0.174,0.042-0.419,0.067-0.735,0.067
			c-0.499,0-0.917-0.137-1.233-0.42c-0.314-0.289-0.476-0.658-0.476-1.11c0-0.48,0.111-0.886,0.334-1.224
			c0.231-0.336,0.561-0.598,1.007-0.794c0.415-0.189,0.914-0.329,1.484-0.408c0.582-0.084,1.062-0.145,1.727-0.187l0.168-0.104
			l0.021-0.165c0-0.254-0.118-0.429-0.353-0.532c-0.238-0.1-0.596-0.15-1.064-0.15c-0.318-0.004-0.718,0.061-1.097,0.147
			c-0.397,0.09-0.506,0.149-0.7,0.207c-0.09,0.031-0.307,0.046-0.226-0.33l0.143-0.589c0,0,0.07-0.445,0.515-0.542
			c0.215-0.048,0.249-0.057,0.6-0.111c0.475-0.073,0.945-0.11,1.416-0.11c0.953,0,1.651,0.124,2.092,0.373
			c0.443,0.248,0.669,0.636,0.667,1.157L20.746,26.781z M22.627,34.055l-1.212,0.002c-0.252,0-0.335-0.2-0.181-0.446l1.037-1.808
			c0,0,0.083-0.103,0.009-0.693c-0.16-1.066-0.956-5.598-0.956-5.598c-0.058-0.245,0.098-0.446,0.35-0.446l1.049-0.002
			c0.321,0,0.579,0.211,0.637,0.459l0.522,3.143l0.194,0.002c0.163-0.289,1.839-3.165,1.839-3.165
			c0.16-0.242,0.484-0.447,0.736-0.447c0,0,1.127,0.003,1.404,0c0.416-0.006-0.032,0.668-0.032,0.668l-4.664,7.887
			C23.209,33.857,22.877,34.055,22.627,34.055z M34.744,27.726c-0.799,0.583-1.912,0.878-3.344,0.878h-0.334
			c-0.252-0.004-0.504,0.201-0.562,0.443l-0.396,1.741c-0.058,0.243-0.314,0.443-0.562,0.44l-1.173,0.003
			c-0.249,0.001-0.413-0.201-0.353-0.444l1.646-7.167c0.06-0.243,0.306-0.441,0.56-0.445l2.447-0.002
			c0.525,0.002,0.987,0.039,1.375,0.108c0.395,0.072,0.735,0.196,1.019,0.373c0.279,0.179,0.498,0.408,0.644,0.692
			c0.15,0.28,0.223,0.634,0.225,1.054C35.936,26.359,35.535,27.133,34.744,27.726z M42.002,26.786l-0.043,0.303l-0.856,3.689
			c-0.048,0.223-0.269,0.412-0.499,0.44l-0.016,0.006H40.42c-0.242,0-0.752,0-0.899,0H39.5l-0.002-0.006
			c-0.227-0.021-0.367-0.209-0.312-0.438l-0.002-0.003l0.005-0.004l0.039-0.188l-0.007-0.009l-0.438,0.295L38.3,31.138l-0.565,0.191
			c-0.174,0.045-0.42,0.064-0.733,0.069c-0.5,0-0.914-0.142-1.232-0.423c-0.316-0.286-0.479-0.657-0.479-1.111
			c0-0.477,0.111-0.885,0.335-1.221c0.229-0.336,0.564-0.597,1.006-0.795c0.418-0.19,0.92-0.328,1.487-0.408
			c0.578-0.084,1.058-0.145,1.728-0.186l0.168-0.106l0.018-0.165c0-0.252-0.116-0.429-0.354-0.531
			c-0.238-0.101-0.596-0.151-1.062-0.151c-0.32-0.002-0.721,0.062-1.099,0.147c-0.395,0.092-0.502,0.149-0.695,0.207
			c-0.098,0.029-0.309,0.046-0.229-0.33l0.143-0.588c0,0,0.067-0.446,0.514-0.542c0.217-0.047,0.252-0.058,0.602-0.109
			c0.472-0.076,0.945-0.113,1.416-0.113c0.949,0,1.646,0.126,2.091,0.375c0.446,0.248,0.669,0.634,0.669,1.155L42.002,26.786z
			 M45.752,23.679l-1.568,7.101l-0.055,0.084c-0.093,0.2-0.291,0.362-0.506,0.362h-1.088l-0.02-0.025
			c-0.207-0.032-0.342-0.199-0.293-0.417l-0.002-0.005l0.047-0.205l1.466-6.662l0.052-0.232l0.059-0.091
			c0.095-0.196,0.289-0.355,0.504-0.355h1.047c0.255,0,0.408,0.199,0.354,0.443L45.752,23.679z M47.83,22.911h-0.392v0.521
			l0.003,0.14l0.027,0.094l0.062,0.06l0.12,0.019l0.098-0.014l0.073-0.022h0.009v0.171l-0.117,0.023l-0.111,0.009l-0.266-0.095
			l-0.091-0.3v-0.606h-0.132v-0.162h0.132v-0.325h0.193v0.325h0.392V22.911z M49.725,23.15v0.737h-0.189v-0.65l-0.012-0.139
			l-0.025-0.11l-0.066-0.065L49.306,22.9l-0.159,0.041l-0.163,0.103l0.003,0.056l0.002,0.06v0.729h-0.19v-0.65l-0.008-0.141
			l-0.027-0.109L48.7,22.924l-0.129-0.023l-0.157,0.039l-0.159,0.099v0.85h-0.188V22.75h0.188v0.127l0.182-0.116l0.188-0.042
			l0.198,0.047l0.122,0.136l0.21-0.141l0.205-0.042l0.277,0.113l0.09,0.318H49.725z"/>
	</g>
</g>
<g>
	<g>
		<path d="M39.628,28.37c-0.069-0.001-0.596,0.061-0.86,0.095c-0.303,0.043-0.562,0.102-0.771,0.174
			c-0.214,0.084-0.388,0.197-0.501,0.338c-0.112,0.146-0.168,0.332-0.168,0.572l0.229,0.437c0.146,0.087,0.369,0.129,0.666,0.129
			c0.187,0,0.393-0.046,0.608-0.133l0.457-0.237l0.188-0.242c0.07-0.285,0.222-0.91,0.234-0.988L39.628,28.37z"/>
	</g>
</g>
<g>
	<g>
		<path d="M33.372,24.888c-0.231-0.151-0.567-0.225-1.016-0.227l-0.381,0.002c-0.252-0.002-0.508,0.202-0.56,0.445l-0.354,1.519
			c-0.057,0.244,0.106,0.448,0.359,0.446h0.291c0.633,0,1.124-0.13,1.478-0.384c0.35-0.261,0.528-0.625,0.526-1.104
			C33.709,25.273,33.6,25.038,33.372,24.888z"/>
	</g>
</g>
<g>
</g>
<g>
</g>
<g>
</g>
<g>
</g>
<g>
</g>
<g>
</g>
<g>
</g>
<g>
</g>
<g>
</g>
<g>
</g>
<g>
</g>
<g>
</g>
<g>
</g>
<g>
</g>
<g>
</g>
</svg>
