<?xml version="1.0" encoding="iso-8859-1"?>
<!-- Generator: Adobe Illustrator 19.0.0, SVG Export Plug-In . SVG Version: 6.00 Build 0)  -->
<svg version="1.1" id="Capa_1" xmlns="http://www.w3.org/2000/svg" xmlns:xlink="http://www.w3.org/1999/xlink" x="0px" y="0px"
	 viewBox="0 0 56.48 56.48" style="enable-background:new 0 0 56.48 56.48;" xml:space="preserve">
<g>
	<g>
		<path d="M35.91,21.249c-0.189-0.081-0.388-0.067-0.59-0.06c0,0.309,0,0.604,0,0.911c0.198,0.014,0.383,0.02,0.557-0.066
			c0.168-0.083,0.24-0.225,0.243-0.409C36.121,21.458,36.074,21.32,35.91,21.249z"/>
	</g>
</g>
<g>
	<g>
		<path d="M32.032,34.562c-0.233-0.023-0.47-0.007-0.722-0.007c0,0.244,0,0.482,0.004,0.723c0,0.023,0.037,0.066,0.057,0.066
			c0.204,0,0.41,0.008,0.611-0.012c0.184-0.019,0.304-0.186,0.309-0.383C32.297,34.742,32.207,34.58,32.032,34.562z"/>
	</g>
</g>
<g>
	<g>
		<path d="M51.545,20.142c-0.304-0.003-0.55,0.244-0.55,0.554c0,0.313,0.244,0.566,0.542,0.564c0.307-0.002,0.536-0.237,0.536-0.551
			C52.074,20.385,51.852,20.146,51.545,20.142z M51.754,20.698c-0.031,0.015-0.068,0.021-0.115,0.034
			c0.064,0.102,0.126,0.2,0.188,0.298c-0.006,0.007-0.013,0.015-0.019,0.022c-0.027-0.018-0.061-0.031-0.08-0.055
			c-0.04-0.053-0.078-0.111-0.106-0.172c-0.048-0.106-0.125-0.126-0.25-0.087c0,0.098,0,0.202,0,0.307
			c-0.015,0-0.028-0.001-0.04-0.001c0-0.223,0-0.446,0-0.679c0.124,0,0.254-0.013,0.379,0.005c0.051,0.008,0.114,0.073,0.133,0.125
			C51.875,20.575,51.842,20.658,51.754,20.698z"/>
	</g>
</g>
<g>
	<g>
		<path d="M55.026,9.939H1.454C0.65,9.939,0,10.59,0,11.393v33.694c0,0.803,0.65,1.455,1.454,1.455h53.572
			c0.804,0,1.454-0.651,1.454-1.454V11.393C56.48,10.59,55.83,9.939,55.026,9.939z M49.799,20.156c0.188,0,0.379,0,0.575,0
			c0,3.462,0,6.921,0,10.383c-0.194,0-0.382,0-0.575,0C49.799,27.078,49.799,23.622,49.799,20.156z M33.484,20.109
			c0.044,0,0.079,0,0.115,0c0.883,0,1.768-0.003,2.654,0.002c0.336,0.002,0.67,0.024,0.991,0.143
			c0.42,0.156,0.632,0.467,0.669,0.899c0.026,0.295,0.004,0.588-0.175,0.844c-0.16,0.226-0.388,0.344-0.642,0.424
			c-0.026,0.009-0.052,0.017-0.109,0.036c0.087,0.022,0.144,0.037,0.204,0.052c0.327,0.081,0.535,0.283,0.598,0.615
			c0.042,0.22,0.062,0.445,0.097,0.667c0.057,0.362,0.117,0.724,0.178,1.093c-0.013,0.001-0.045,0.005-0.075,0.005
			c-0.548,0-1.097-0.002-1.644,0.002c-0.08,0-0.109-0.031-0.121-0.101c-0.055-0.327-0.111-0.654-0.168-0.981
			c-0.021-0.127-0.039-0.254-0.067-0.379c-0.027-0.119-0.107-0.2-0.226-0.219c-0.142-0.024-0.289-0.027-0.447-0.04
			c0,0.584,0,1.144,0,1.711c-0.617,0-1.221,0-1.832,0C33.484,23.296,33.484,21.71,33.484,20.109z M28.433,20.114
			c1.203,0,2.4,0,3.607,0c0,0.407,0,0.81,0,1.229c-0.6,0-1.202,0-1.811,0c0,0.182,0,0.348,0,0.525c0.558,0,1.107,0,1.664,0
			c0,0.416,0,0.821,0,1.236c-0.555,0-1.104,0-1.666,0c0,0.189,0,0.36,0,0.545c0.039,0.002,0.076,0.006,0.115,0.006
			c0.549,0.001,1.101,0.002,1.653-0.001c0.086-0.001,0.116,0.019,0.115,0.112c-0.007,0.343-0.004,0.688-0.001,1.031
			c0.001,0.071-0.02,0.093-0.092,0.093c-1.178-0.001-2.355-0.001-3.534-0.001c-0.013,0-0.027-0.004-0.051-0.006
			C28.432,23.294,28.432,21.708,28.433,20.114z M31.652,25.947c-0.005,0.132-0.001,0.265-0.001,0.397c0,1.379,0,2.758,0,4.136
			c0,0.146,0,0.146-0.146,0.146c-0.539,0-1.08-0.002-1.621,0.002c-0.087,0.002-0.108-0.027-0.108-0.109
			c0.001-1.521,0.001-3.043,0.001-4.565c0-0.031,0.004-0.062,0.007-0.106c0.289,0,0.566,0,0.84,0c0.308,0,0.616,0.003,0.925-0.002
			C31.629,25.844,31.655,25.87,31.652,25.947z M22.932,20.117c1.409,0,2.815,0,4.229,0c0,0.421,0,0.841,0,1.271
			c-0.387,0-0.773,0-1.169,0c0,1.168,0,2.327,0,3.497c-0.635,0-1.25,0-1.881,0c0-1.161,0-2.322,0-3.493c-0.4,0-0.785,0-1.179,0
			C22.932,20.963,22.932,20.542,22.932,20.117z M17.379,23.424c0.601,0,1.19,0,1.779,0c0.019,0.081,0.031,0.158,0.055,0.232
			c0.067,0.212,0.233,0.297,0.517,0.275c0.203-0.017,0.359-0.159,0.388-0.354c0.021-0.136-0.059-0.269-0.221-0.329
			c-0.187-0.069-0.381-0.121-0.572-0.18c-0.361-0.111-0.73-0.201-1.083-0.336c-0.63-0.241-0.842-0.741-0.77-1.386
			c0.071-0.645,0.478-1.005,1.062-1.201c0.516-0.172,1.048-0.177,1.582-0.135c0.338,0.027,0.665,0.099,0.963,0.266
			c0.433,0.242,0.637,0.621,0.649,1.11c0,0.011,0,0.021-0.002,0.032c-0.001,0.006-0.006,0.012-0.013,0.028
			c-0.03,0.002-0.065,0.006-0.1,0.006c-0.479,0-0.959-0.002-1.439,0.001c-0.083,0.001-0.129-0.01-0.14-0.11
			c-0.015-0.15-0.116-0.255-0.276-0.27c-0.128-0.011-0.263,0.005-0.39,0.033c-0.113,0.026-0.18,0.115-0.186,0.236
			c-0.006,0.116,0.046,0.21,0.154,0.248c0.205,0.071,0.416,0.127,0.624,0.189c0.325,0.097,0.656,0.177,0.974,0.294
			c0.749,0.275,1.062,0.838,0.916,1.624c-0.112,0.598-0.501,0.943-1.052,1.137c-0.418,0.147-0.852,0.183-1.29,0.177
			c-0.391-0.006-0.777-0.047-1.148-0.184c-0.59-0.219-0.929-0.632-0.983-1.266c-0.002-0.025-0.002-0.05-0.002-0.075
			C17.376,23.469,17.379,23.452,17.379,23.424z M12.662,20.109c1.121,0,2.243,0.001,3.364-0.002c0.092,0,0.127,0.022,0.126,0.118
			c-0.004,0.337-0.002,0.674-0.002,1.011c0,0.032-0.004,0.063-0.006,0.108c-0.604,0-1.204,0-1.811,0c0,0.181,0,0.347,0,0.525
			c0.56,0,1.113,0,1.672,0c0,0.415,0,0.818,0,1.234c-0.554,0-1.108,0-1.67,0c0,0.188,0,0.365,0,0.549c0.622,0,1.237,0,1.864,0
			c0,0.412,0,0.817,0,1.23c-1.218,0-2.434,0-3.669,0c-0.003-0.053-0.007-0.102-0.007-0.152c-0.001-1.494-0.001-2.987-0.001-4.481
			C12.522,20.109,12.522,20.109,12.662,20.109z M10.148,24.887c-0.563,0-1.125,0-1.688,0c-0.038,0-0.077,0-0.132,0
			c-0.148-1.029-0.295-2.054-0.442-3.079c-0.012,0-0.023,0-0.035,0c-0.147,1.024-0.294,2.048-0.442,3.079c-0.122,0-0.237,0-0.351,0
			c-0.522,0-1.045-0.003-1.568,0.003c-0.103,0.002-0.133-0.037-0.152-0.126c-0.133-0.636-0.27-1.272-0.407-1.907
			c-0.191-0.883-0.384-1.766-0.576-2.648c-0.007-0.028-0.005-0.056-0.007-0.097c0.559,0,1.106,0,1.668,0
			c0.135,1,0.27,1.998,0.404,2.996c0.011,0,0.021,0,0.032,0c0.147-0.994,0.294-1.989,0.442-2.993
			c0.038-0.002,0.077-0.006,0.115-0.006c0.574,0,1.147,0.002,1.72-0.002c0.089-0.001,0.118,0.022,0.131,0.115
			c0.093,0.655,0.195,1.308,0.292,1.961c0.046,0.308,0.088,0.615,0.131,0.922c0.012,0,0.023,0.001,0.034,0.002
			c0.134-0.996,0.268-1.992,0.403-2.992c0.561,0,1.112,0,1.677,0c-0.032,0.158-0.062,0.312-0.094,0.464
			c-0.129,0.6-0.258,1.2-0.388,1.801c-0.166,0.764-0.332,1.528-0.499,2.292C10.368,24.89,10.367,24.888,10.148,24.887z M13.8,36.937
			c0.001,0.075-0.024,0.102-0.1,0.1c-0.178-0.004-0.356-0.001-0.542-0.001c0-0.83,0-1.646,0-2.461
			c-0.006-0.002-0.013-0.003-0.019-0.004c-0.065,0.203-0.131,0.405-0.195,0.61c-0.188,0.597-0.376,1.191-0.568,1.787
			c-0.01,0.028-0.057,0.062-0.089,0.064c-0.121,0.007-0.243,0-0.365,0.006c-0.073,0.003-0.109-0.028-0.13-0.096
			c-0.131-0.432-0.265-0.86-0.399-1.29c-0.107-0.349-0.216-0.694-0.342-1.04c0,0.029,0,0.061,0,0.089
			c0,0.735-0.003,1.47,0.001,2.204c0.002,0.106-0.032,0.137-0.134,0.132c-0.153-0.007-0.306-0.002-0.468-0.002
			c0-0.999,0-1.985,0-2.985c0.163,0,0.323,0,0.483,0c0.15,0,0.301,0.004,0.451-0.002c0.081-0.001,0.113,0.029,0.134,0.103
			c0.188,0.66,0.38,1.318,0.57,1.976c0.002,0.01,0.008,0.02,0.022,0.051c0.21-0.67,0.416-1.322,0.615-1.974
			c0.035-0.11,0.08-0.162,0.206-0.155c0.254,0.012,0.509,0.006,0.763,0.002c0.081-0.002,0.107,0.026,0.106,0.104
			C13.798,35.081,13.799,36.008,13.8,36.937z M17.048,36.403c-0.168,0.369-0.473,0.576-0.859,0.664
			c-0.362,0.082-0.718,0.052-1.058-0.102c-0.369-0.17-0.59-0.461-0.676-0.849c-0.046-0.208-0.056-0.423-0.083-0.635
			c0.029-0.307,0.097-0.598,0.251-0.864c0.188-0.325,0.472-0.518,0.84-0.59c0.33-0.067,0.653-0.044,0.969,0.076
			c0.333,0.127,0.548,0.373,0.673,0.695C17.314,35.338,17.285,35.877,17.048,36.403z M20.492,36.935
			c0.002,0.082-0.028,0.105-0.105,0.104c-0.229-0.004-0.459-0.004-0.688,0c-0.071,0-0.106-0.025-0.137-0.09
			c-0.345-0.747-0.693-1.491-1.04-2.237c-0.011-0.022-0.023-0.043-0.049-0.089c0,0.771,0,1.513,0,2.254c0,0.159,0,0.16-0.165,0.16
			c-0.146,0-0.292,0-0.444,0c0-1,0-1.983,0-2.987c0.085,0,0.166,0,0.247,0c0.19,0.002,0.38,0.006,0.569,0
			c0.08-0.002,0.119,0.027,0.154,0.099c0.334,0.708,0.671,1.415,1.007,2.122c0.007,0.017,0.016,0.031,0.039,0.048
			c0-0.048,0-0.095,0-0.142c0-0.668,0.002-1.334-0.002-2c-0.001-0.101,0.028-0.134,0.127-0.129c0.122,0.008,0.244,0.008,0.365,0
			c0.094-0.004,0.123,0.028,0.123,0.123c-0.003,0.666-0.002,1.332-0.002,2C20.491,36.424,20.489,36.679,20.492,36.935z
			 M18.489,30.601c-0.473-0.135-0.859-0.398-1.046-0.877c-0.07-0.178-0.121-0.374-0.123-0.562c-0.012-1.085-0.007-2.17-0.007-3.256
			c0-0.013,0.004-0.027,0.006-0.054c0.625,0,1.244,0,1.873,0c0,0.047,0,0.089,0,0.131c0,0.992-0.001,1.985,0.004,2.976
			c0,0.105,0.025,0.214,0.064,0.312c0.057,0.15,0.185,0.214,0.342,0.205c0.152-0.005,0.26-0.089,0.305-0.23
			c0.033-0.107,0.049-0.224,0.049-0.336c0.004-0.932,0.003-1.863,0.003-2.794c0-0.085,0-0.17,0-0.261c0.63,0,1.247,0,1.882,0
			c0,0.042,0,0.083,0,0.125c0,1.017,0.001,2.033-0.001,3.052c-0.001,0.839-0.462,1.414-1.284,1.604
			C19.864,30.796,19.172,30.799,18.489,30.601z M23.251,37.028c-0.683,0-1.354,0-2.04,0c0-0.048,0-0.089,0-0.131
			c0-0.907,0.002-1.814-0.001-2.72c-0.001-0.104,0.03-0.129,0.132-0.129c0.577,0.004,1.153,0.004,1.73,0
			c0.109-0.002,0.145,0.031,0.136,0.139c-0.01,0.117-0.002,0.234-0.002,0.359c-0.449,0-0.884,0-1.34,0
			c0,0.224-0.003,0.43,0.005,0.637c0,0.02,0.066,0.053,0.102,0.054c0.333,0.003,0.667,0.001,1,0.002
			c0.045,0,0.091,0.005,0.141,0.008c0,0.166,0,0.322,0,0.489c-0.054,0.003-0.103,0.008-0.152,0.008c-0.33,0-0.659,0.002-0.989-0.002
			c-0.084,0-0.111,0.027-0.109,0.111c0.004,0.218,0.001,0.434,0.001,0.662c0.053,0.004,0.094,0.007,0.136,0.007
			c0.384,0,0.767,0.002,1.15-0.002c0.082,0,0.107,0.022,0.103,0.104C23.247,36.757,23.252,36.888,23.251,37.028z M23.377,30.507
			c0-1.512,0.002-3.024-0.001-4.535c0-0.1,0.027-0.125,0.125-0.125c0.677,0.004,1.355,0.004,2.031,0.001
			c0.08-0.001,0.117,0.021,0.144,0.1c0.313,0.904,0.631,1.807,0.948,2.71c0.008,0.026,0.02,0.049,0.031,0.073
			c0.011-0.002,0.021-0.004,0.031-0.006c0-0.955,0-1.91,0-2.871c0.507,0,1.003,0,1.509,0c0,1.588,0,3.174,0,4.768
			c-0.036,0.002-0.068,0.007-0.099,0.007c-0.681,0-1.361-0.002-2.042,0.002c-0.081,0-0.117-0.026-0.144-0.103
			c-0.307-0.892-0.617-1.782-0.928-2.672c-0.016-0.045-0.035-0.088-0.053-0.133c-0.009,0.002-0.019,0.003-0.029,0.004
			c0,0.963,0,1.927,0,2.895c-0.515,0-1.012,0-1.518,0C23.38,30.581,23.377,30.542,23.377,30.507z M26.027,34.542
			c-0.236,0.444-0.475,0.889-0.709,1.336c-0.024,0.045-0.035,0.101-0.035,0.152c-0.003,0.297-0.004,0.595,0,0.893
			c0.001,0.088-0.029,0.118-0.117,0.114c-0.143-0.006-0.287-0.006-0.43,0c-0.082,0.003-0.104-0.028-0.103-0.106
			c0.004-0.293,0.006-0.588,0-0.881c-0.002-0.071-0.02-0.149-0.054-0.211c-0.294-0.558-0.593-1.11-0.89-1.666
			c-0.014-0.028-0.026-0.057-0.048-0.103c0.246,0,0.472-0.002,0.697,0.003c0.029,0.002,0.071,0.041,0.086,0.072
			c0.181,0.392,0.358,0.787,0.536,1.181c0.009,0.018,0.018,0.038,0.034,0.075c0.086-0.185,0.165-0.357,0.246-0.529
			c0.112-0.241,0.225-0.479,0.333-0.72c0.027-0.062,0.059-0.085,0.127-0.083c0.185,0.004,0.369,0.001,0.577,0.001
			C26.187,34.241,26.108,34.39,26.027,34.542z M30.223,34.564c-0.218,0-0.432-0.001-0.647,0.001
			c-0.267,0.002-0.222-0.026-0.222,0.221c-0.002,0.703-0.002,1.404-0.002,2.107c0,0.041,0,0.084,0,0.143
			c-0.205,0-0.401,0.001-0.597-0.003c-0.019-0.001-0.048-0.038-0.054-0.062c-0.009-0.037-0.004-0.078-0.004-0.117
			c0-0.723-0.002-1.447,0.002-2.172c0-0.096-0.03-0.123-0.122-0.119c-0.218,0.005-0.437-0.001-0.655,0.003
			c-0.08,0.002-0.108-0.024-0.104-0.104c0.005-0.097,0.007-0.193-0.001-0.291c-0.008-0.098,0.031-0.121,0.123-0.121
			c0.588,0.002,1.175,0,1.763,0c0.169,0,0.342,0,0.522,0C30.225,34.231,30.225,34.39,30.223,34.564z M32.354,37.026
			c-0.037-0.26-0.072-0.514-0.11-0.768c-0.011-0.082-0.024-0.162-0.044-0.242c-0.025-0.102-0.099-0.168-0.197-0.172
			c-0.218-0.011-0.435-0.004-0.664-0.004c0,0.398,0,0.788,0,1.186c-0.223,0-0.435,0-0.66,0c-0.002-0.04-0.006-0.078-0.006-0.115
			c0-0.914,0.002-1.828-0.002-2.74c0-0.094,0.024-0.123,0.12-0.123c0.397,0.004,0.796-0.008,1.192,0.006
			c0.18,0.006,0.369,0.026,0.535,0.088c0.307,0.115,0.445,0.369,0.459,0.688c0.012,0.3-0.157,0.548-0.444,0.673
			c-0.035,0.014-0.069,0.029-0.131,0.053c0.365,0.047,0.437,0.301,0.476,0.58c0.031,0.224,0.066,0.446,0.104,0.668
			c0.012,0.073,0.044,0.141,0.069,0.223C32.819,37.026,32.59,37.026,32.354,37.026z M33.068,27.859
			c0.079-0.73,0.351-1.356,0.996-1.765c0.462-0.296,0.981-0.377,1.52-0.368c0.401,0.007,0.79,0.071,1.155,0.244
			c0.54,0.256,0.899,0.676,1.082,1.24c0.232,0.721,0.23,1.447-0.038,2.156c-0.284,0.755-0.86,1.176-1.639,1.324
			c-0.205,0.039-0.418,0.048-0.627,0.07c-0.528-0.016-1.032-0.108-1.483-0.402c-0.468-0.304-0.742-0.744-0.881-1.275
			C33.047,28.68,33.024,28.271,33.068,27.859z M35.917,37.034c-0.117-0.001-0.267,0.037-0.345-0.022
			c-0.081-0.06-0.099-0.211-0.136-0.326c-0.096-0.289-0.094-0.29-0.394-0.29c-0.254,0-0.509,0.004-0.763-0.003
			c-0.08-0.002-0.116,0.03-0.139,0.1c-0.045,0.15-0.102,0.297-0.149,0.447c-0.021,0.069-0.053,0.098-0.128,0.096
			c-0.168-0.006-0.336-0.002-0.527-0.002c0.096-0.264,0.182-0.505,0.268-0.746c0.254-0.703,0.507-1.404,0.757-2.109
			c0.033-0.092,0.074-0.138,0.181-0.131c0.175,0.01,0.351,0.006,0.527,0c0.077-0.002,0.116,0.025,0.14,0.098
			c0.215,0.629,0.432,1.256,0.65,1.884c0.106,0.304,0.209,0.608,0.313,0.912c0.007,0.023,0.013,0.047,0.026,0.096
			C36.098,37.038,36.008,37.039,35.917,37.034z M39.278,37.039c-0.241-0.002-0.482,0.003-0.72-0.005
			c-0.041-0.001-0.097-0.043-0.116-0.081c-0.275-0.582-0.546-1.166-0.817-1.749c-0.086-0.186-0.172-0.369-0.258-0.553
			c-0.006,0.001-0.012,0.002-0.018,0.003c0,0.748,0,1.495,0,2.244c0,0.139,0,0.139-0.143,0.14c-0.153,0-0.306,0-0.472,0
			c0-0.051,0-0.086,0-0.121c0-0.914,0.002-1.826-0.002-2.738c0-0.099,0.024-0.133,0.125-0.129c0.231,0.006,0.465,0.004,0.698,0
			c0.08-0.004,0.119,0.028,0.152,0.099c0.331,0.704,0.667,1.407,1,2.112c0.01,0.018,0.021,0.037,0.042,0.076
			c0.003-0.046,0.005-0.071,0.005-0.095c0-0.69,0.002-1.383-0.002-2.074c0-0.097,0.03-0.122,0.123-0.118
			c0.132,0.006,0.265,0.002,0.397,0c0.07-0.002,0.093,0.028,0.093,0.096c-0.001,0.935-0.001,1.869,0.002,2.805
			C39.367,37.018,39.34,37.039,39.278,37.039z M39.505,20.106c0.676,0.004,1.353,0.004,2.03,0c0.079-0.001,0.113,0.028,0.138,0.099
			c0.31,0.898,0.624,1.794,0.937,2.691c0.011,0.032,0.026,0.063,0.041,0.095c0.008-0.001,0.018-0.003,0.028-0.004
			c0-0.955,0-1.91,0-2.872c0.506,0,1.002,0,1.509,0c0,1.587,0,3.174,0,4.767c-0.028,0.002-0.056,0.006-0.083,0.006
			c-0.682,0-1.361-0.002-2.041,0.002c-0.09,0.001-0.133-0.023-0.163-0.111c-0.291-0.851-0.588-1.701-0.884-2.551
			c-0.027-0.08-0.056-0.159-0.109-0.238c-0.002,0.033-0.007,0.064-0.007,0.097c0,0.895-0.002,1.791,0.002,2.686
			c0,0.098-0.026,0.12-0.12,0.119c-0.432-0.004-0.859-0.002-1.29-0.002c-0.03,0-0.061-0.003-0.104-0.005
			c-0.002-0.042-0.008-0.08-0.008-0.118c0-1.512,0-3.023-0.002-4.534C39.379,20.135,39.406,20.106,39.505,20.106z M39.38,30.52
			c0.002-1.522,0.002-3.044,0-4.566c0-0.078,0.02-0.107,0.103-0.106c0.688,0.002,1.375,0.002,2.063-0.001
			c0.075-0.001,0.103,0.03,0.125,0.096c0.313,0.901,0.629,1.801,0.944,2.7c0.011,0.029,0.025,0.058,0.058,0.082
			c0-0.953,0-1.906,0-2.868c0.512,0,1.01,0,1.518,0c0,1.585,0,3.17,0,4.771c-0.042,0-0.073,0-0.105,0c-0.681,0-1.361,0-2.041,0.002
			c-0.078,0-0.112-0.025-0.137-0.098c-0.311-0.902-0.625-1.803-0.938-2.704c-0.011-0.034-0.029-0.068-0.069-0.099
			c0,0.051,0,0.103,0,0.154c0,0.874-0.002,1.749,0.002,2.622c0.001,0.102-0.028,0.125-0.126,0.125c-0.427-0.005-0.853-0.005-1.279,0
			C39.412,30.63,39.379,30.612,39.38,30.52z M42.188,36.646c-0.166,0.222-0.393,0.345-0.66,0.406
			c-0.36,0.082-0.718,0.082-1.064-0.053c-0.323-0.123-0.491-0.371-0.521-0.711c-0.021-0.219-0.017-0.219,0.206-0.219
			c0.121,0,0.244-0.004,0.365,0.003c0.027,0.001,0.076,0.037,0.076,0.058c0,0.457,0.363,0.546,0.705,0.48
			c0.084-0.017,0.174-0.052,0.241-0.105c0.219-0.175,0.17-0.485-0.095-0.576c-0.203-0.069-0.414-0.112-0.618-0.176
			c-0.132-0.043-0.263-0.096-0.386-0.158c-0.594-0.297-0.471-1.027-0.146-1.305c0.143-0.121,0.303-0.201,0.485-0.24
			c0.299-0.067,0.603-0.07,0.9,0.023c0.379,0.12,0.623,0.466,0.582,0.838c-0.207,0-0.406,0-0.582,0
			c-0.062-0.115-0.099-0.238-0.174-0.322c-0.175-0.193-0.584-0.158-0.74,0.049c-0.158,0.207-0.058,0.468,0.213,0.549
			c0.215,0.065,0.438,0.106,0.65,0.179c0.164,0.058,0.334,0.121,0.471,0.224C42.404,35.825,42.434,36.305,42.188,36.646z
			 M44.871,34.546c-0.419,0-0.835,0-1.268,0c0,0.228-0.004,0.445,0.004,0.661c0.001,0.021,0.067,0.054,0.102,0.054
			c0.315,0.004,0.631,0.002,0.945,0.002c0.141,0,0.141,0,0.141,0.141c0,0.121,0,0.24,0,0.371c-0.406,0-0.792,0-1.188,0
			c0,0.421,0,0.83,0,1.26c-0.21,0-0.404,0.002-0.595-0.003c-0.021,0-0.047-0.036-0.058-0.06c-0.009-0.02-0.002-0.049-0.002-0.074
			c0-0.905,0-1.811-0.002-2.717c0-0.082,0.012-0.125,0.108-0.125c0.572,0.002,1.146,0,1.718,0c0.029,0,0.057,0.006,0.095,0.009
			C44.871,34.221,44.871,34.377,44.871,34.546z M45.305,20.156c0.189,0,0.381,0,0.578,0c0,3.462,0,6.921,0,10.383
			c-0.195,0-0.384,0-0.578,0C45.305,27.078,45.305,23.622,45.305,20.156z M47.446,37.028c-0.675,0-1.347,0-2.023,0
			c0-0.993,0-1.977,0-2.973c0.045-0.002,0.086-0.006,0.127-0.006c0.576,0,1.153,0.002,1.729-0.002c0.103,0,0.14,0.029,0.132,0.133
			c-0.009,0.117-0.002,0.235-0.002,0.365c-0.445,0-0.883,0-1.338,0c0,0.223-0.002,0.432,0.005,0.642
			c0,0.018,0.069,0.049,0.106,0.049c0.332,0.004,0.666,0.002,0.998,0.003c0.143,0,0.143,0.001,0.143,0.139c0,0.117,0,0.234,0,0.359
			c-0.062,0.004-0.111,0.007-0.161,0.008c-0.312,0-0.623,0-0.935,0c-0.159,0-0.159-0.001-0.159,0.165
			c-0.001,0.168,0.003,0.337-0.002,0.504c-0.002,0.081,0.02,0.111,0.108,0.11c0.382-0.004,0.765-0.001,1.148-0.001
			c0.04,0,0.078,0,0.124,0C47.446,36.697,47.446,36.859,47.446,37.028z M49.747,37.034c-0.018-0.001-0.047-0.048-0.051-0.077
			c-0.044-0.276-0.085-0.551-0.125-0.825c-0.033-0.224-0.107-0.289-0.333-0.289c-0.183,0-0.364,0-0.558,0c0,0.402,0,0.792,0,1.188
			c-0.224,0-0.436,0-0.653,0c0-0.992,0-1.975,0-2.971c0.047-0.002,0.088-0.006,0.13-0.006c0.382-0.002,0.765-0.008,1.148,0.002
			c0.164,0.001,0.332,0.021,0.488,0.063c0.318,0.087,0.526,0.363,0.53,0.701c0.004,0.274-0.097,0.534-0.453,0.688
			c-0.03,0.012-0.061,0.028-0.116,0.051c0.278,0.037,0.404,0.203,0.446,0.445c0.023,0.125,0.038,0.254,0.06,0.379
			c0.037,0.213,0.076,0.425,0.117,0.651C50.18,37.034,49.963,37.036,49.747,37.034z M51.549,21.323
			c-0.347,0.003-0.637-0.278-0.64-0.618c-0.003-0.338,0.279-0.621,0.621-0.625c0.356-0.004,0.625,0.263,0.627,0.621
			C52.159,21.042,51.889,21.32,51.549,21.323z"/>
	</g>
</g>
<g>
	<g>
		<path d="M51.734,20.443c-0.107-0.022-0.218-0.027-0.33-0.035c-0.007,0-0.018,0.021-0.021,0.033
			c-0.05,0.148,0.004,0.224,0.188,0.224c0.017-0.001,0.065,0.007,0.106-0.01c0.037-0.016,0.08-0.054,0.088-0.091
			C51.775,20.528,51.753,20.448,51.734,20.443z"/>
	</g>
</g>
<g>
	<g>
		<path d="M36.031,28.234c0-0.108,0.006-0.216-0.001-0.323c-0.018-0.246-0.031-0.493-0.139-0.722
			c-0.08-0.169-0.215-0.241-0.396-0.234c-0.177,0.006-0.3,0.093-0.361,0.255c-0.041,0.113-0.084,0.232-0.09,0.351
			c-0.018,0.396-0.035,0.793-0.02,1.189c0.008,0.19,0.078,0.382,0.141,0.566c0.043,0.133,0.165,0.19,0.304,0.2
			c0.242,0.021,0.41-0.088,0.467-0.358c0.064-0.303,0.089-0.614,0.129-0.921C36.053,28.237,36.043,28.236,36.031,28.234z"/>
	</g>
</g>
<g>
	<g>
		<path d="M16.464,34.932c-0.099-0.299-0.337-0.464-0.626-0.466c-0.318-0.004-0.561,0.148-0.669,0.455
			c-0.144,0.409-0.143,0.829-0.005,1.241c0.099,0.294,0.307,0.456,0.626,0.464c0.321,0.007,0.517-0.12,0.657-0.434
			c0.095-0.213,0.11-0.442,0.109-0.671c0.009-0.003,0.019-0.005,0.028-0.007C16.546,35.32,16.525,35.12,16.464,34.932z"/>
	</g>
</g>
<g>
	<g>
		<path d="M34.774,34.671c-0.143,0.422-0.282,0.818-0.42,1.219c0.275,0,0.541,0,0.816,0C35.038,35.484,34.91,35.088,34.774,34.671z"
			/>
	</g>
</g>
<g>
	<g>
		<path d="M49.295,34.549c-0.184-0.009-0.365-0.007-0.548-0.013c-0.062-0.002-0.083,0.021-0.082,0.08c0.002,0.106,0,0.215,0,0.322
			c0,0.106,0.001,0.214,0,0.321c0,0.056,0.017,0.09,0.079,0.088c0.189-0.004,0.38,0.002,0.568-0.012
			c0.199-0.015,0.336-0.199,0.328-0.42C49.633,34.69,49.512,34.557,49.295,34.549z"/>
	</g>
</g>
<g>
</g>
<g>
</g>
<g>
</g>
<g>
</g>
<g>
</g>
<g>
</g>
<g>
</g>
<g>
</g>
<g>
</g>
<g>
</g>
<g>
</g>
<g>
</g>
<g>
</g>
<g>
</g>
<g>
</g>
</svg>
