<svg id="bold" enable-background="new 0 0 32 32" height="512" viewBox="0 0 32 32" width="512" xmlns="http://www.w3.org/2000/svg"><path d="m26 32h-20c-3.314 0-6-2.686-6-6v-20c0-3.314 2.686-6 6-6h20c3.314 0 6 2.686 6 6v20c0 3.314-2.686 6-6 6z" fill="#ffe6e2"/><g fill="#fd907e"><path d="m18.022 12.187h2.583v1h-2.583z" transform="matrix(.707 -.707 .707 .707 -3.314 17.372)"/><path d="m19.313 18.522h1v2.583h-1z" transform="matrix(.707 -.707 .707 .707 -8.207 19.813)"/><path d="m10.125 19.73h3.29v1h-3.29z" transform="matrix(.707 -.707 .707 .707 -10.857 14.248)"/><path d="m9.667 15.833h2v1h-2z"/><path d="m22.333 16.833h-2.667c-.276 0-.5-.224-.5-.5s.224-.5.5-.5h2.667c.276 0 .5.224.5.5s-.224.5-.5.5z"/><path d="m11.353 9.383h1v4.94h-1z" transform="matrix(.707 -.707 .707 .707 -4.91 11.853)"/><path d="m15.667 13.291c-.276 0-.5-.224-.5-.5v-2.458c0-.276.224-.5.5-.5s.5.224.5.5v2.458c0 .276-.224.5-.5.5z"/></g><path d="m19.454 15.376c-.081-.077-.204-.195-.224-.238-.014-.061.023-.253.045-.368.063-.328.142-.738-.097-1.08-.248-.357-.676-.409-.988-.446-.102-.012-.273-.033-.308-.049-.042-.042-.114-.209-.158-.309-.136-.313-.305-.703-.712-.842-.405-.137-.776.082-1.047.242-.093.055-.248.146-.291.154-.058-.008-.213-.099-.306-.154-.271-.16-.643-.379-1.048-.242-.407.138-.576.528-.712.841-.043.1-.116.268-.145.3-.048.027-.219.047-.321.059-.313.037-.74.089-.988.446-.239.343-.16.752-.097 1.081.022.115.059.307.048.36-.023.051-.146.168-.227.246-.23.22-.546.521-.546.958 0 .436.315.738.546.958.081.077.204.195.224.238.014.061-.023.253-.045.368-.063.328-.142.738.097 1.08.248.357.676.409.988.446.102.012.273.033.308.049.042.042.114.209.158.309.136.313.305.703.712.842.09.03.177.043.263.043.301 0 .573-.16.785-.285.093-.055.248-.146.291-.154.058.008.213.099.306.154.271.16.642.377 1.048.242.407-.138.576-.528.712-.841.043-.1.116-.268.145-.3.048-.027.219-.047.321-.059.313-.037.74-.089.988-.446.239-.343.16-.752.097-1.081-.022-.115-.059-.307-.048-.36.023-.051.146-.168.227-.246.23-.221.545-.522.545-.959 0-.436-.315-.737-.546-.957zm-4.68 1.14-.112.064c-.104.059-.217.087-.329.087-.232 0-.457-.121-.58-.337-.182-.32-.07-.727.25-.909l.112-.064c.05-.028.295-.18.19-.373-.175-.324-.054-.729.27-.903.325-.175.729-.054.903.27.418.77.114 1.701-.704 2.165zm3.198 1.093c-.105.353-.477.555-.828.45l-.124-.037c-.107-.032-.205-.028-.272.008-.051.028-.085.077-.106.15-.083.294-.35.487-.642.487-.06 0-.12-.008-.18-.025-.354-.099-.561-.467-.462-.822.117-.416.381-.756.744-.957.382-.212.841-.255 1.296-.12l.125.037c.353.105.554.476.449.829z" fill="#fc573b"/><g fill="#fd907e"><path d="m21 12.667c-.919 0-1.667-.748-1.667-1.667s.748-1.667 1.667-1.667 1.667.748 1.667 1.667-.748 1.667-1.667 1.667z"/><path d="m22 24c-1.103 0-2-.897-2-2s.897-2 2-2 2 .897 2 2-.897 2-2 2z"/><path d="m9.667 24c-.919 0-1.667-.748-1.667-1.667s.748-1.667 1.667-1.667 1.667.748 1.667 1.667c-.001.919-.748 1.667-1.667 1.667z"/><path d="m9.333 10.667c-.735 0-1.333-.598-1.333-1.334 0-.735.598-1.333 1.333-1.333s1.333.598 1.333 1.333c.001.736-.597 1.334-1.333 1.334z"/><circle cx="15.667" cy="9.667" r="1"/><circle cx="9" cy="16.333" r="1"/><circle cx="23" cy="16.333" r="1"/></g></svg>