<svg id="Bold" enable-background="new 0 0 32 32" height="512" viewBox="0 0 32 32" width="512" xmlns="http://www.w3.org/2000/svg"><path d="m26 32h-20c-3.314 0-6-2.686-6-6v-20c0-3.314 2.686-6 6-6h20c3.314 0 6 2.686 6 6v20c0 3.314-2.686 6-6 6z" fill="#e3f8fa"/><g fill="#26c6da"><path d="m11.354 23.458c-.735 0-1.333-.598-1.333-1.333s.598-1.333 1.333-1.333 1.333.598 1.333 1.333-.597 1.333-1.333 1.333z"/><path d="m18.021 23.458c-.735 0-1.333-.598-1.333-1.333s.598-1.333 1.333-1.333 1.333.598 1.333 1.333-.598 1.333-1.333 1.333z"/><path d="m23.354 9.292h-1.076c-.674 0-1.243.505-1.324 1.173l-.201 1.66h-.566v.833c0 .813-.487 1.54-1.233 1.847-.247.1-.5.153-.767.153-.247 0-.487-.047-.707-.127l-.213.207c-.38.38-.88.587-1.413.587-.307 0-.613-.073-.893-.207l-.047-.027-.98.98c-.38.38-.88.587-1.413.587s-1.033-.207-1.413-.587-.587-.88-.587-1.413.207-1.033.587-1.413l1.42-1.42h-3.254c-.38 0-.72.173-.94.48-.227.3-.287.68-.173 1.04l1.573 5c.153.48.607.813 1.113.813h9.017l-.101.833h-9.409c-.368 0-.667.299-.667.667s.299.667.667.667h9.409c.674 0 1.243-.505 1.324-1.173l.12-.994.893-7.333h-.004l.182-1.5h1.076c.368 0 .667-.299.667-.667s-.298-.666-.667-.666z"/></g><path d="m18.188 10.625h-1.667c-.27 0-.513.162-.616.411s-.046.536.145.727l.362.362-.689.689-.904-.452c-.257-.129-.567-.078-.77.125l-2 2c-.26.26-.26.682 0 .943.13.13.301.195.471.195.171 0 .341-.065.471-.195l1.66-1.66.904.452c.257.128.567.078.77-.125l1.029-1.029.362.362c.128.128.298.195.471.195.086 0 .173-.017.255-.051.249-.103.411-.346.411-.616v-1.667c.001-.368-.297-.666-.665-.666z" fill="#8ce1eb"/></svg>