<svg id="bold" enable-background="new 0 0 32 32" height="512" viewBox="0 0 32 32" width="512" xmlns="http://www.w3.org/2000/svg"><path d="m26 32h-20c-3.314 0-6-2.686-6-6v-20c0-3.314 2.686-6 6-6h20c3.314 0 6 2.686 6 6v20c0 3.314-2.686 6-6 6z" fill="#fff9dd"/><path d="m15.3 19.6c-.326-.245-.8-.013-.8.4v.457c-.41-.023-.809-.053-1.189-.094-3.25-.335-4.311-1.127-4.311-1.363 0-.072.219-.411 1.285-.766.221-.051.384-.25.384-.487 0-.329-.345-.577-.659-.475-1.333.436-2.01 1.017-2.01 1.728 0 1.644 3.643 2.196 5.205 2.357.413.046.847.079 1.295.103v.54c0 .413.473.645.8.4l1.333-1c.266-.2.267-.6 0-.8z" fill="#ffe777"/><path d="m21.985 17.271c-.264-.086-.545.058-.631.321-.085.263.058.545.321.631 1.082.351 1.325.687 1.325.777 0 .295-1.371 1.118-4.766 1.402-.275.023-.479.265-.457.54.022.264.248.477.54.457 1.709-.143 5.683-.663 5.683-2.399 0-.712-.678-1.293-2.015-1.729z" fill="#ffe777"/><g fill="#ffd200"><path d="m16 8.5 4.667 2-4.667 2-4.667-2z"/><path d="m16.667 13.665v3.883l4-1.715v-3.882z"/><path d="m15.333 13.665-4-1.714v3.882l4 1.715z"/></g></svg>