<svg enable-background="new 0 0 32 32" height="512" viewBox="0 0 32 32" width="512" xmlns="http://www.w3.org/2000/svg"><g id="BG"><path d="m26 32h-20c-3.314 0-6-2.686-6-6v-20c0-3.314 2.686-6 6-6h20c3.314 0 6 2.686 6 6v20c0 3.314-2.686 6-6 6z" fill="#f5e6fe"/></g><g id="bold"><path d="m20.667 24.167c-.92 0-1.667-.748-1.667-1.667s.747-1.667 1.667-1.667c.919 0 1.667.748 1.667 1.667-.001.919-.748 1.667-1.667 1.667z" fill="#d9a4fc"/><path d="m11 24.167c-.919 0-1.667-.748-1.667-1.667s.747-1.667 1.667-1.667 1.667.748 1.667 1.667-.748 1.667-1.667 1.667z" fill="#d9a4fc"/><g fill="#be63f9"><path d="m17.833 16.833h3.833c.143 0 .28.035.412.085l-.341-1.363c-.204-.817-.936-1.388-1.779-1.388h-2.126c-.276 0-.5.224-.5.5v2.284c.153-.073.322-.118.501-.118z"/><path d="m23.768 18.745-1.833-1.167c-.08-.051-.173-.078-.268-.078h-3.833c-.276 0-.5.224-.5.5v4.333c0 .276.224.5.5.5h.534c-.016-.11-.034-.219-.034-.333 0-1.286 1.047-2.333 2.333-2.333s2.333 1.047 2.333 2.333c0 .114-.018.224-.034.333h.534c.276 0 .5-.224.5-.5v-3.167c0-.17-.087-.329-.232-.421z"/><path d="m16.167 12.833h-7.667c-.276 0-.5.224-.5.5v9c0 .276.224.5.5.5h.2c-.016-.11-.034-.219-.034-.333 0-1.286 1.047-2.333 2.333-2.333s2.333 1.047 2.333 2.333c0 .114-.018.224-.034.333h2.867c.276 0 .5-.224.5-.5v-9c.002-.276-.222-.5-.498-.5z"/></g></g></svg>