<?xml version="1.0" encoding="utf-8"?>
<!-- Generator: Adobe Illustrator 21.1.0, SVG Export Plug-In . SVG Version: 6.00 Build 0)  -->
<svg version="1.1" id="Layer_1" xmlns="http://www.w3.org/2000/svg" xmlns:xlink="http://www.w3.org/1999/xlink" x="0px" y="0px"
	 viewBox="0 0 158.2 42" style="enable-background:new 0 0 158.2 42;" xml:space="preserve">
<style type="text/css">
	.st0{fill:#FFFFFF;}
</style>
<path class="st0" d="M22.5,15.2v-4.6c3.5,0.5,6.4,2.7,7.9,5.7L26,17.8C25.2,16.5,24,15.6,22.5,15.2z M18,21c0,1.7,1.3,3,3,3
	s3-1.3,3-3s-1.3-3-3-3S18,19.3,18,21z M15,21c0-0.1,0-0.2,0-0.4l-4.4-1.4c-0.1,0.6-0.2,1.2-0.2,1.8c0,2.9,1.2,5.6,3.2,7.5l2.7-3.7
	C15.5,23.8,15,22.4,15,21z M19.5,15.2v-4.6c-3.5,0.5-6.4,2.7-7.9,5.7l4.3,1.4C16.8,16.5,18,15.6,19.5,15.2z M48,40.5
	c0,0.8-0.7,1.5-1.5,1.5H21C9.4,42,0,32.6,0,21S9.4,0,21,0h16.5C38.3,0,39,0.7,39,1.5S38.3,3,37.5,3h-5.7c1.4,0.9,2.7,1.8,3.9,3h10.8
	C47.3,6,48,6.7,48,7.5S47.3,9,46.5,9h-8.3c2.4,3.4,3.8,7.5,3.8,12s-1.4,8.6-3.8,12H42c0.8,0,1.5,0.7,1.5,1.5S42.8,36,42,36h-6.3
	c-1.2,1.2-2.5,2.1-3.9,3h14.7C47.3,39,48,39.7,48,40.5z M34.5,21c0-7.4-6.1-13.5-13.5-13.5S7.5,13.6,7.5,21S13.6,34.5,21,34.5
	S34.5,28.4,34.5,21z M21,27c-0.8,0-1.5-0.2-2.2-0.4l-2.7,3.7c1.5,0.8,3.1,1.3,4.9,1.3s3.4-0.5,4.9-1.3l-2.7-3.7
	C22.5,26.8,21.8,27,21,27z M31.3,19.2L27,20.6c0,0.1,0,0.2,0,0.4c0,1.4-0.5,2.8-1.4,3.8l2.7,3.7c2-1.9,3.2-4.6,3.2-7.5
	C31.5,20.4,31.4,19.8,31.3,19.2z"/>
<g>
	<path class="st0" d="M60.5,24.2L59.3,31h-6.7l3.7-21.2h9.3c2.3,0,4,0.5,5.2,1.5c1.2,1,1.8,2.4,1.8,4.2c0,0.4,0,1-0.2,1.6
		c-0.2,1.3-0.8,2.6-1.6,3.6c-0.8,1.1-1.9,2-3.2,2.6s-2.9,1-4.6,1H60.5z M65.7,17c0-0.1,0-0.3,0-0.5c0-1-0.6-1.5-1.8-1.5h-1.9
		L61.4,19h1.9C64.7,19,65.5,18.4,65.7,17z"/>
	<path class="st0" d="M80.3,14.1l-3,16.9h-6.7l3-16.9H80.3z M74.5,8.1c0.4-0.6,0.9-1.1,1.6-1.4c0.7-0.3,1.5-0.5,2.3-0.5
		c1,0,1.8,0.3,2.4,0.8c0.6,0.5,0.9,1.2,0.9,2c0,0.7-0.2,1.3-0.6,1.9c-0.4,0.6-0.9,1.1-1.6,1.4c-0.7,0.4-1.4,0.5-2.3,0.5
		c-1,0-1.9-0.3-2.4-0.8c-0.6-0.5-0.9-1.2-0.9-2C73.9,9.3,74.1,8.7,74.5,8.1z"/>
	<path class="st0" d="M88.1,24.2c0,0.1,0,0.2,0,0.3c0,0.6,0.4,0.8,1.1,0.8h1.6l-1,5.7h-2.5c-3.9,0-5.9-1.7-5.9-5
		c0-0.6,0.1-1.2,0.2-1.9l0.8-4.4h-2.1l1-5.5h2.1l0.7-4.1h6.7l-0.7,4.1h2.8l-1,5.5h-2.8L88.1,24.2z"/>
	<path class="st0" d="M106.1,15.5c1.3,1.1,2.1,2.6,2.3,4.4h-6.5c-0.1-1-0.8-1.4-2.1-1.4c-0.4,0-0.7,0-0.9,0.1s-0.3,0.3-0.3,0.5
		c0,0.3,0.2,0.5,0.6,0.7c0.4,0.2,1.1,0.4,2,0.6c1.3,0.3,2.4,0.6,3.2,1c0.9,0.3,1.6,0.8,2.3,1.5c0.6,0.7,1,1.6,1,2.7
		c0,0.4,0,0.8-0.1,1.1c-0.3,1.3-1.1,2.4-2.4,3.3s-3.1,1.2-5.4,1.2c-2.4,0-4.3-0.5-5.8-1.6c-1.5-1-2.3-2.5-2.4-4.5h6.5
		c0,0.5,0.1,0.9,0.6,1.1c0.4,0.2,1,0.3,1.6,0.3c0.8,0,1.2-0.2,1.3-0.7c0.1-0.3-0.1-0.6-0.5-0.8c-0.4-0.2-1.1-0.4-2.1-0.6
		c-1.3-0.3-2.3-0.6-3.2-0.9c-0.9-0.3-1.6-0.8-2.2-1.5c-0.6-0.7-1-1.6-1-2.7c0-0.2,0-0.6,0.1-1.1c0.2-1.3,1-2.4,2.3-3.3
		c1.3-0.9,3.1-1.3,5.4-1.3C102.9,13.9,104.8,14.4,106.1,15.5z"/>
	<path class="st0" d="M117,24.2c0,0.1,0,0.2,0,0.3c0,0.6,0.4,0.8,1.1,0.8h1.6l-1,5.7h-2.5c-3.9,0-5.9-1.7-5.9-5
		c0-0.6,0.1-1.2,0.2-1.9l0.8-4.4h-2.1l1-5.5h2.1l0.7-4.1h6.7l-0.7,4.1h2.8l-1,5.5h-2.8L117,24.2z"/>
	<path class="st0" d="M135,14.7c1.2,0.6,2.1,1.4,2.7,2.5c0.6,1.1,1,2.4,1,3.9c0,0.6-0.1,1.3-0.2,2c-0.3,1.6-0.9,3.1-1.9,4.3
		c-1,1.2-2.2,2.2-3.6,2.8c-1.4,0.7-3,1-4.7,1c-1.6,0-2.9-0.3-4.1-0.9c-1.2-0.6-2.1-1.4-2.8-2.5c-0.7-1.1-1-2.4-1-3.9
		c0-0.6,0.1-1.3,0.2-2c0.3-1.6,0.9-3.1,1.9-4.3c1-1.2,2.2-2.2,3.7-2.8s3-1,4.7-1C132.5,13.9,133.8,14.2,135,14.7z M128.4,20.4
		c-0.5,0.5-0.8,1.2-1,2.2c-0.1,0.3-0.1,0.6-0.1,0.9c0,0.7,0.2,1.2,0.5,1.5c0.3,0.3,0.8,0.5,1.3,0.5c0.6,0,1.2-0.2,1.7-0.7
		c0.5-0.5,0.8-1.2,1-2.2c0.1-0.3,0.1-0.6,0.1-0.9c0-0.7-0.2-1.2-0.5-1.5c-0.3-0.3-0.8-0.5-1.3-0.5C129.5,19.6,128.9,19.9,128.4,20.4
		z"/>
	<path class="st0" d="M156.4,15.6c1,1.1,1.6,2.7,1.6,4.7c0,0.8-0.1,1.5-0.2,2.2c-0.3,1.8-0.9,3.3-1.7,4.6c-0.8,1.3-1.9,2.3-3,3
		c-1.2,0.7-2.4,1-3.8,1c-1.1,0-2-0.2-2.7-0.7c-0.7-0.5-1.2-1.1-1.5-1.8l-1.8,10.4h-6.7l4.4-25h6.7l-0.4,2.3c0.6-0.8,1.3-1.4,2.1-1.8
		c0.9-0.4,1.9-0.7,3-0.7C154,13.9,155.4,14.4,156.4,15.6z M149.9,24.6c0.5-0.5,0.9-1.2,1.1-2.1c0-0.2,0.1-0.4,0.1-0.7
		c0-0.7-0.2-1.2-0.5-1.6s-0.9-0.6-1.5-0.6c-0.7,0-1.4,0.3-1.9,0.8c-0.6,0.5-0.9,1.2-1.1,2.1c0,0.2-0.1,0.4-0.1,0.7
		c0,0.7,0.2,1.2,0.5,1.6s0.8,0.6,1.5,0.6C148.8,25.4,149.4,25.1,149.9,24.6z"/>
</g>
</svg>
