<?xml version="1.0" encoding="utf-8"?>
<!-- Generator: Adobe Illustrator 21.1.0, SVG Export Plug-In . SVG Version: 6.00 Build 0)  -->
<svg version="1.1" id="Layer_1" xmlns="http://www.w3.org/2000/svg" xmlns:xlink="http://www.w3.org/1999/xlink" x="0px" y="0px"
	 viewBox="0 0 50 50" style="enable-background:new 0 0 50 50;" xml:space="preserve">
<style type="text/css">
	.st0{fill:#33CAFF;}
</style>
<path class="st0" d="M2,6.6v1v19h11v2c0,2-0.6,3.8-1.6,5.1S9.3,35.6,8,35.6H7v7h1c7.7,0,14-6.3,14-14v-3v-2v-17H2z M28,6.6v1v19h11
	v2c0,2-0.6,3.8-1.6,5.1s-2.1,1.9-3.4,1.9h-1v7h1c7.7,0,14-6.3,14-14v-3v-2v-17H28z M4,8.6h16v15v2v3c0,6.3-4.9,11.3-11,11.8v-3.1
	c1.6-0.3,3-1.1,4-2.5c1.2-1.6,2-3.8,2-6.3v-4H4V8.6z M30,8.6h16v15v2v3c0,6.3-4.9,11.3-11,11.8v-3.1c1.6-0.3,3-1.1,4-2.5
	c1.2-1.6,2-3.8,2-6.3v-4H30V8.6z"/>
</svg>
