<?xml version="1.0" standalone="no"?>
<!DOCTYPE svg PUBLIC "-//W3C//DTD SVG 1.1//EN" "http://www.w3.org/Graphics/SVG/1.1/DTD/svg11.dtd" >
<svg xmlns="http://www.w3.org/2000/svg">
<metadata>Generated by IcoMoon</metadata>
<defs>
<font id="pitstop" horiz-adv-x="1024">
<font-face units-per-em="1024" ascent="960" descent="-64" />
<missing-glyph horiz-adv-x="1024" />
<glyph unicode="&#x20;" horiz-adv-x="512" d="" />
<glyph unicode="&#xe900;" glyph-name="burger" d="M922.675 128h-821.402c-22.426 0-37.325 12.749-37.325 32v64c0 19.2 14.899 32 37.325 32h821.402c22.374 0 37.325-12.8 37.325-32v-64c0-19.251-14.899-32-37.325-32zM922.675 384h-821.402c-22.426 0-37.325 12.8-37.325 32v64c0 19.2 14.899 32 37.325 32h821.402c22.374 0 37.325-12.8 37.325-32v-64c0-19.2-14.899-32-37.325-32zM922.675 640.051h-821.402c-22.426 0-37.325 12.749-37.325 31.949v64c0 19.2 14.899 32 37.325 32h821.402c22.374 0 37.325-12.8 37.325-32v-64c0-19.2-14.899-31.949-37.325-31.949z" />
<glyph unicode="&#xe901;" glyph-name="cart" d="M978.893 515.072h-190.003l-136.448 412.723c-8.346 24.986-34.048 38.093-57.549 29.338-23.552-8.858-35.891-36.147-27.648-61.184l125.952-380.877h-362.342l125.952 380.877c8.243 25.037-4.096 52.326-27.648 61.184-23.501 8.755-49.306-4.352-57.549-29.338l-136.448-412.723h-190.003c-24.883 0-45.107-21.453-45.107-47.923s20.224-47.923 45.107-47.923h12.339l110.592-428.749c8.243-32.154 35.686-54.323 67.072-54.323h556.8c31.488 0 59.085 22.477 67.226 54.835l107.674 428.237h12.083c24.883 0 45.107 21.453 45.107 47.923s-20.224 47.923-45.107 47.923zM364.186 92.877c0-26.47-20.224-47.923-45.107-47.923-24.986 0-45.107 21.453-45.107 47.923v243.405c0 26.522 20.173 47.923 45.107 47.923 24.883 0 45.107-21.453 45.107-47.923v-243.405zM557.107 92.877c0-26.47-20.224-47.923-45.107-47.923s-45.107 21.453-45.107 47.923v243.405c0 26.522 20.224 47.923 45.107 47.923s45.107-21.453 45.107-47.923v-243.405zM750.080 92.877c0-26.47-20.173-47.923-45.107-47.923-24.883 0-45.107 21.453-45.107 47.923v243.405c0 26.522 20.224 47.923 45.107 47.923 24.986 0 45.107-21.453 45.107-47.923v-243.405z" />
<glyph unicode="&#xe902;" glyph-name="like" d="M736.84 795.483c10.217 0 25.549 0 35.766-5.115 30.664-5.115 61.315-20.437 86.866-40.881s40.881-45.991 51.098-76.647c5.115-20.437 10.217-40.881 10.217-66.43-5.115-51.098-25.549-107.311-61.315-173.742-71.545-117.528-183.958-224.84-347.483-332.151-127.745 81.762-229.955 168.626-301.487 265.721-35.766 45.991-76.647 112.419-97.094 183.958-10.217 35.766-10.217 61.315-10.217 91.979 5.115 25.549 15.332 56.213 30.664 76.647 15.332 25.549 40.881 40.881 66.43 56.213 25.549 10.217 56.213 20.437 86.866 20.437 35.766 0 71.545-10.217 97.094-30.664 20.437-10.217 35.766-25.549 45.991-40.881l81.762-97.094 81.762 102.196c15.332 15.332 30.664 30.664 45.991 40.881 25.549 15.332 61.315 25.549 97.094 25.549zM736.84 897.679c-56.213 0-107.311-15.332-153.294-45.991-25.549-15.332-51.098-40.881-71.545-66.43-20.437 25.549-45.991 51.098-71.545 66.43-45.991 30.664-97.094 45.991-153.294 45.991-45.991 0-91.979-10.217-132.86-35.766-40.881-20.437-76.647-51.098-102.196-86.866s-45.991-76.647-51.098-122.643c-5.115-40.881 0-81.762 10.217-127.745 25.549-86.866 76.647-168.626 117.528-219.724 86.866-112.419 204.402-214.623 362.813-311.705l20.437-10.217 20.437 10.217c194.175 117.528 332.151 245.277 413.913 388.364 51.098 81.762 76.647 153.294 76.647 219.724 0 35.766-5.115 71.545-15.332 107.311v0c-15.332 45.991-45.991 86.866-81.762 117.528s-81.762 56.213-132.86 61.315c-20.437 5.115-35.766 10.217-56.213 10.217v0z" />
<glyph unicode="&#xe903;" glyph-name="compare" d="M920.606 632.972h-722.191l141.407-123.998c15.154-13.312 17.149-38.193 3.843-53.347-7.475-7.525-30.668-20.53-53.245-1.842l-212.981 188.817c-16.844 16.995-15.922 41.316 0 57.188l212.981 187.178c15.204 13.312 39.883 11.316 53.245-3.891s11.366-38.193-3.843-53.347l-137.004-120.314h719.833c20.684 0 37.528-17.149 37.323-38.398 0-21.042-18.688-38.193-39.319-38.193zM101.191 264.964h720.553l-139.206 122.106c-15.154 13.312-17.203 38.244-3.843 53.399 13.312 15.308 38.040 17.149 53.194 3.843l213.032-188.817c17.919-18.124 18.124-39.165-0.154-57.392l-213.032-188.817c-7.525-5.634-31.436-19.199-53.245 3.891-13.312 15.154-11.366 38.193 3.891 53.347l139.154 122.106h-720.348c-20.53 0-37.169 17.203-37.169 38.244s16.639 38.244 37.169 38.244z" />
<glyph unicode="&#xe904;" glyph-name="search" d="M1010.799 9.923l-229.276 229.382c62.563 76.132 100.196 173.67 100.196 279.816 0 243.1-197.735 440.893-440.844 440.893s-440.844-197.789-440.844-440.893c0-243.207 197.735-440.942 440.844-440.942 106.085 0 203.574 37.633 279.767 100.255l229.333-229.382c17.36-17.36 43.472-17.36 60.881 0 17.567 17.36 17.567 43.521 0 60.93zM85.8 519.121c0 195.845 159.236 355.082 355.033 355.082s355.033-159.285 355.033-355.082c0-195.894-159.236-355.131-355.033-355.131s-355.033 159.285-355.033 355.131z" />
<glyph unicode="&#xe905;" glyph-name="user" d="M76.784-64v48.195c0 219.191 195.245 397.535 435.197 397.535 239.991 0 435.236-178.346 435.236-397.535v-48.195h-870.433zM511.981 285.341c-163.834 0-300.16-109.728-325.471-252.987h650.978c-25.31 143.26-161.637 252.987-325.508 252.987zM511.981 478.122c-145.419 0-263.749 108.061-263.749 240.939 0 132.84 118.329 240.939 263.749 240.939 145.458 0 263.786-108.098 263.786-240.939 0-132.878-118.329-240.939-263.786-240.939zM511.981 863.609c-87.259 0-158.226-64.829-158.226-144.548s70.967-144.586 158.226-144.586c87.298 0 158.264 64.866 158.264 144.586s-70.967 144.548-158.264 144.548z" />
<glyph unicode="&#xe906;" glyph-name="star" d="M1024 565.76c0 5.12-10.24 10.24-15.36 10.24l-332.8 46.080-148.48 302.080c-5.12 5.12-10.24 10.24-15.36 10.24s-15.36-5.12-15.36-10.24l-148.48-296.96-332.8-51.2c-5.12 0-10.24-5.12-15.36-10.24 0-10.24 0-15.36 5.12-20.48l240.64-235.52-56.32-332.8c0-5.12 0-15.36 5.12-20.48s15.36-5.12 20.48 0l296.96 153.6 296.96-153.6c5.12 0 5.12 0 10.24 0s5.12 0 10.24 5.12 10.24 10.24 5.12 20.48l-56.32 332.8 240.64 235.52c5.12 0 5.12 10.24 5.12 15.36z" />
<glyph unicode="&#xe907;" glyph-name="star2" d="M512 811.52l122.88-245.76 30.72-5.12 235.52-30.72-168.96-163.84-25.6-25.6 5.12-30.72 40.96-250.88-215.040 112.64-25.6 10.24-30.72-15.36-215.040-112.64 46.080 276.48-194.56 194.56 271.36 46.080 15.36 30.72 107.52 209.92zM512 934.4c-5.12 0-15.36-5.12-15.36-10.24l-148.48-296.96-332.8-51.2c-5.12 0-10.24-5.12-15.36-10.24 0-10.24 0-15.36 5.12-20.48l240.64-235.52-56.32-332.8c0-5.12 0-15.36 5.12-20.48 0 0 5.12-5.12 10.24-5.12s10.24 0 10.24 5.12l296.96 153.6 296.96-153.6c5.12 0 5.12 0 10.24 0s5.12 0 10.24 5.12 10.24 10.24 5.12 20.48l-56.32 332.8 240.64 235.52c5.12 0 5.12 10.24 5.12 15.36s-10.24 10.24-15.36 10.24l-332.8 46.080-148.48 302.080c-5.12 5.12-10.24 10.24-15.36 10.24v0z" />
<glyph unicode="&#xe908;" glyph-name="mobile" d="M712.348 887.652c16.696 0 33.391-5.565 44.522-16.696s11.13-22.261 11.13-33.391v0 0-768c0-27.826-22.261-61.217-61.217-61.217h-400.696c-27.826 0-61.217 22.261-61.217 61.217v762.435c0 27.826 27.826 55.652 66.783 55.652h400.696zM712.348 960h-400.696c-72.348 0-133.565-55.652-133.565-128v-768c0-72.348 61.217-128 128-128h411.826c72.348 0 128 61.217 128 128v768c0 72.348-61.217 128-133.565 128v0zM584.348 737.392h-139.13c-22.261 0-38.957 16.696-38.957 38.957s16.696 38.957 38.957 38.957h139.13c22.261 0 38.957-16.696 38.957-38.957-5.565-22.261-22.261-38.957-38.957-38.957zM567.652 108.522c0-30.736-24.916-55.652-55.652-55.652s-55.652 24.916-55.652 55.652c0 30.736 24.916 55.652 55.652 55.652s55.652-24.916 55.652-55.652z" />
<glyph unicode="&#xe909;" glyph-name="reload" d="M1023.181 805.222l-45.568-213.146c-2.099-9.677-7.936-18.125-16.179-23.45-5.222-3.328-11.11-5.325-17.152-5.837-3.584-0.307-7.27-0.051-10.906 0.666l-212.685 45.722c-20.070 4.301-32.87 24.115-28.57 44.237s24.064 32.922 44.186 28.57l123.904-26.573c-72.55 125.286-206.694 203.93-353.638 203.93-225.485 0-408.883-183.757-408.883-409.651 0-20.582-16.64-37.274-37.171-37.274s-37.171 16.691-37.171 37.274c0 266.957 216.781 484.147 483.226 484.147 173.005 0 330.854-92.262 416.87-239.258l26.982 126.31c4.301 20.070 24.064 32.922 44.134 28.621 20.070-4.352 32.87-24.115 28.57-44.237zM74.906 320.87c8.55 4.966 18.688 6.298 28.211 3.738l210.125-56.422c19.763-5.376 31.539-25.754 26.214-45.619-5.274-19.866-25.651-31.642-45.517-26.317l-129.229 34.714c74.086-120.115 205.312-194.202 347.75-194.202 4.557 0 9.062 0.051 13.619 0.205 109.158 3.584 210.33 49.613 284.979 129.485 74.65 79.923 113.766 184.166 110.131 293.53-0.666 20.531 15.462 37.786 35.942 38.451s37.683-15.462 38.349-35.994c4.301-129.28-41.933-252.416-130.099-346.88s-207.821-148.787-336.845-152.986c-5.376-0.205-10.752-0.307-16.077-0.307-166.4 0-319.744 85.555-407.808 224.563l-31.642-118.323c-4.454-16.64-19.507-27.648-35.891-27.648-3.174 0-6.4 0.41-9.626 1.28-19.814 5.325-31.59 25.754-26.266 45.619l56.371 210.534c2.509 9.574 8.755 17.664 17.254 22.579z" />
<glyph unicode="&#xe90a;" glyph-name="left" d="M619.52 739.84l76.8-71.68-220.16-220.16 220.16-220.16-76.8-71.68-291.84 291.84z" />
<glyph unicode="&#xe90b;" glyph-name="right" d="M404.48 156.16l-76.8 71.68 220.16 220.16-220.16 220.16 76.8 71.68 291.84-291.84z" />
<glyph unicode="&#xe90c;" glyph-name="top" d="M224 336.128l67.174-68.096 220.774 223.744 220.723-223.744 67.328 68.096-288.051 291.84-287.949-291.84z" />
<glyph unicode="&#xe90d;" glyph-name="bottom" d="M220.16 555.52l71.68 76.8 220.16-220.16 220.16 220.16 71.68-76.8-291.84-291.84z" />
<glyph unicode="&#xe90e;" glyph-name="check" d="M455.68 222.72c-10.24 0-20.48 5.12-30.72 10.24l-240.64 194.56 66.56 81.92 199.68-163.84 317.44 353.28 76.8-66.56-348.16-389.12c-15.36-15.36-25.6-20.48-40.96-20.48z" />
<glyph unicode="&#xe90f;" glyph-name="ungle" d="M512 320l-256 256h512l-256-256z" />
<glyph unicode="&#xe910;" glyph-name="across" d="M952.32-33.28l-440.32 445.44-440.32-445.44-40.96 40.96 445.44 440.32-445.44 440.32 40.96 40.96 440.32-445.44 440.32 445.44 40.96-40.96-445.44-440.32 445.44-440.32z" />
<glyph unicode="&#xe911;" glyph-name="cartbig" d="M1017.702 750.694c-6.195 8.602-16.077 13.722-26.522 13.722h-739.277c-1.434 0-2.867-0.102-4.25-0.307l-30.413 88.883c-3.174 9.216-10.086 16.589-18.995 20.070l-153.293 61.082c-16.896 6.656-35.994-1.741-42.65-18.79-6.605-17.203 1.69-36.506 18.534-43.213l139.264-55.45 170.496-498.022c-7.526-2.611-13.926-8.499-16.794-16.691l-49.306-138.752c-3.021-8.499-1.792-17.92 3.379-25.293s13.517-11.827 22.374-11.827h25.293c-15.718-17.715-25.293-41.011-25.293-66.611 0-55.091 44.237-99.891 98.56-99.891s98.56 44.8 98.56 99.891c0 25.6-9.626 48.896-25.293 66.611h214.938c-15.718-17.715-25.293-41.011-25.293-66.611 0-55.091 44.237-99.891 98.56-99.891s98.56 44.8 98.56 99.891c0 25.6-9.626 48.896-25.293 66.611h30.771c15.155 0 27.392 12.39 27.392 27.699 0 15.411-12.288 27.75-27.392 27.75h-525.056l30.515 85.914c3.942-1.69 8.192-2.662 12.698-2.662h481.894c14.336 0 26.931 9.37 31.283 23.142l136.909 432.947c3.174 10.138 1.434 21.146-4.762 29.747zM388.813 15.053c-24.166 0-43.827 19.917-43.827 44.442s19.61 44.39 43.827 44.39c24.166 0 43.827-19.866 43.827-44.39s-19.61-44.442-43.827-44.442zM750.234 15.053c-24.166 0-43.827 19.917-43.827 44.442s19.61 44.39 43.827 44.39c24.115 0 43.827-19.866 43.827-44.39s-19.661-44.442-43.827-44.442zM922.47 622.797h-167.68v74.957h191.334l-23.654-74.957zM874.138 470.17h-119.347v86.016h146.637l-27.238-86.016zM537.549 470.17v86.016h151.501v-86.016h-151.501zM689.101 403.61v-72.192h-151.501v72.192h151.501zM318.822 556.237h153.037v-86.016h-123.597l-29.44 86.016zM537.549 622.797v74.957h151.501v-74.957h-151.501zM471.859 697.754v-74.957h-175.872l-25.651 74.957h201.523zM371.046 403.61h100.813v-72.192h-76.134l-24.678 72.192zM754.79 331.418v72.192h98.304l-22.784-72.192h-75.52z" />
<glyph unicode="&#xe912;" glyph-name="info" d="M512-64c-282.317 0-512 229.683-512 512s229.683 512 512 512c282.317 0 512-229.683 512-512s-229.683-512-512-512zM512 866.918c-231.014 0-418.867-187.955-418.867-418.918s187.904-418.918 418.867-418.918c231.014 0 418.918 187.955 418.918 418.918s-187.955 418.918-418.918 418.918zM512 618.65c-34.202 0-62.054 27.802-62.054 62.054s27.853 62.054 62.054 62.054 62.054-27.853 62.054-62.054c0-34.253-27.853-62.054-62.054-62.054zM512 525.568c25.754 0 46.592-20.838 46.592-46.541v-279.245c0-25.754-20.838-46.592-46.592-46.592s-46.541 20.838-46.541 46.592v279.245c0 25.702 20.838 46.541 46.541 46.541z" />
<glyph unicode="&#xe913;" glyph-name="cards" horiz-adv-x="1603" d="M1346.56-64v256h256v-256h-256zM1346.56 576h256v-256h-256v256zM1346.56 960h256v-256h-256v256zM896 192h256v-256h-256v256zM896 576h256v-256h-256v256zM896 960h256v-256h-256v256zM450.56 192h256v-256h-256v256zM450.56 576h256v-256h-256v256zM450.56 960h256v-256h-256v256zM0 192h256v-256h-256v256zM0 576h256v-256h-256v256zM0 960h256v-256h-256v256z" />
<glyph unicode="&#xe914;" glyph-name="cardlist" horiz-adv-x="1603" d="M450.56-2.56v128h1152v-128h-1152zM450.56 509.44h1152v-128h-1152v128zM450.56 893.44h1152v-128h-1152v128zM0 960h256v-256h-256v256zM256 320h-256v256h256v-256zM256-64h-256v256h256v-256z" />
<glyph unicode="&#xe915;" glyph-name="list" horiz-adv-x="1603" d="M0-2.56v128h1602.56v-128c0 0-1602.56 0-1602.56 0zM0 509.44h1602.56v-128h-1602.56c0 0 0 128 0 128zM0 893.44h1602.56v-128h-1602.56c0 0 0 128 0 128z" />
<glyph unicode="&#xe916;" glyph-name="bag" d="M897.934-12.917l-30.791 680.333c-1.108 24.855-21.488 44.393-46.253 44.393h-139.026v77.488c0 94.146-76.203 170.704-169.906 170.704-93.658 0-169.862-76.558-169.862-170.704v-77.488h-139.026c-24.766 0-45.146-19.538-46.298-44.393l-30.88-682.77c-0.575-12.716 4.076-25.076 12.803-34.291 8.728-9.171 20.823-14.354 33.494-14.354h679.579c0.044 0 0.044 0 0.044 0 25.608 0 46.342 20.823 46.342 46.519 0 1.551-0.089 3.101-0.222 4.563zM434.735 789.297c0 42.797 34.646 77.621 77.222 77.621s77.222-34.823 77.222-77.621v-77.488h-154.444v77.488zM220.658 29.083l26.671 589.643h94.766v-46.519c0-25.697 20.734-46.564 46.298-46.564 25.608 0 46.342 20.867 46.342 46.564v46.519h154.444v-46.519c0-25.697 20.778-46.564 46.342-46.564 25.608 0 46.342 20.867 46.342 46.564v46.519h94.722l26.671-589.643h-582.598z" />
<glyph unicode="&#xe917;" glyph-name="chart" d="M939.627-64.001h-196.271c-15.177 0-27.471 12.348-27.471 27.525v652.131c0 15.177 12.294 27.471 27.471 27.471h196.271c15.177 0 27.471-12.294 27.471-27.471v-652.131c0-15.177-12.294-27.525-27.471-27.525zM610.19-64.001h-196.325c-15.177 0-27.471 12.348-27.471 27.525v969.003c0 15.177 12.294 27.471 27.471 27.471h196.325c15.123 0 27.417-12.294 27.417-27.471v-969.003c0-15.177-12.294-27.525-27.417-27.525zM280.696-64.001h-196.325c-15.177 0-27.471 12.348-27.471 27.525v456.405c0 15.177 12.294 27.525 27.471 27.525h196.325c15.123 0 27.417-12.348 27.417-27.525v-456.405c0-15.177-12.294-27.525-27.417-27.525z" />
<glyph unicode="&#xe918;" glyph-name="phone" d="M945.405 465.53c-17.725 100.371-66.491 191.626-140.884 263.841-78.392 75.962-177.7 124.172-287.237 139.060l11.091 76.772c126.806-17.167 241.66-72.872 332.409-160.988 86.090-83.811 142.555-189.348 163.217-305.619l-78.595-13.066zM718.229 649.509c51.805-50.49 85.887-113.993 98.244-184.182l-78.646-13.015c-9.571 54.186-35.804 103.51-75.86 142.353-42.387 41.222-96.117 67.049-155.114 75.101l11.091 76.772c76.265-10.33 145.543-43.805 200.286-97.029zM334.217 402.886c54.591-64.973 116.171-122.754 189.651-167.673 15.8-9.52 33.272-16.56 49.679-25.219 8.305-4.558 14.078-3.089 20.864 3.697 24.966 24.865 50.287 49.274 75.658 73.683 33.272 32.106 74.999 32.106 108.473 0 40.716-39.297 81.38-78.545 121.893-118.095 33.879-33.17 33.677-73.733-0.456-107.207-22.991-22.586-47.502-44.109-69.227-67.657-31.752-34.588-71.404-45.729-116.981-43.298-66.289 3.545-127.211 24.814-186.055 52.617-130.604 61.63-242.267 147.062-335.801 255.13-69.277 79.862-126.401 167.015-163.875 265.056-18.332 47.4-31.347 96.016-27.296 147.517 2.583 31.651 14.686 58.795 38.792 80.925 25.979 23.953 50.49 49.021 76.063 73.43 33.272 31.853 74.999 31.853 108.473 0.203 20.662-19.649 40.918-39.702 61.377-59.605 19.801-19.396 39.652-38.487 59.452-57.934 34.943-34.133 34.943-73.835 0.203-107.714-24.916-24.511-49.629-48.919-74.999-72.721-6.634-6.381-7.242-11.546-3.849-19.447 16.864-38.892 40.918-73.43 67.96-105.688z" />
<glyph unicode="&#xe919;" glyph-name="curency" d="M564.566 16.115v-80.115l-210.38 127.997 210.38 128.026v-72.484c163.679 24.809 289.406 162.412 289.406 328.506 0 138.398-87.217 257.201-210.941 307.232l103.128 62.761c127.554-76.668 213.032-213.622 213.032-369.993 0-222.609-172.695-406.471-394.625-431.928zM482.211 224.198v52.064c-37.744 1.62-74.429 11.491-95.791 23.602l16.913 64.175c23.631-12.582 56.927-24.161 93.552-24.161 32.116 0 54.039 12.080 54.039 33.973 0 20.95-18.004 34.062-59.638 47.821-60.403 19.683-101.566 47.174-101.566 100.387 0 48.264 35.005 86.156 95.231 97.647v52.094h55.277v-48.293c37.774-1.65 63.114-9.311 81.677-18.062l-16.294-62.024c-14.703 6.099-40.632 18.681-81.176 18.681-36.714 0-48.529-15.381-48.529-30.733 0-18.121 19.771-29.613 67.74-47.174 66.974-23.1 94.053-53.243 94.053-102.656 0-48.794-35.535-90.487-100.328-101.448v-55.895h-55.159zM459.435 776.461c-163.62-24.78-289.377-162.412-289.377-328.418 0-138.339 87.187-257.171 210.941-307.379l-103.216-62.643c-127.495 76.668-212.973 213.593-212.973 370.022 0 222.579 172.695 406.383 394.596 431.958v79.998l210.439-127.967-210.41-128.026v72.455z" />
</font>
</defs>
</svg>
